<?xml version="1.0" standalone="no"?><!DOCTYPE svg PUBLIC "-//W3C//DTD SVG 1.1//EN" "http://www.w3.org/Graphics/SVG/1.1/DTD/svg11.dtd"><svg t="1566632247353" class="icon" viewBox="0 0 1387 1024" version="1.1" xmlns="http://www.w3.org/2000/svg" p-id="2056" xmlns:xlink="http://www.w3.org/1999/xlink" width="173.375" height="128"><defs><style type="text/css"></style></defs><path d="M704.41405438 429.50663a60.50736187 58.92288094 0 1 0 121.01472374 0 60.50736187 58.92288094 0 1 0-121.01472374 0Z" fill="#BFCBD9" p-id="2057"></path><path d="M489.81593094 429.50663a60.50736187 58.92288094 0 1 0 121.01472468 0 60.50736187 58.92288094 0 1 0-121.01472468 0Z" fill="#BFCBD9" p-id="2058"></path><path d="M281.15961125 429.50663a60.50736187 58.92288094 0 1 0 121.01472375 0 60.50736187 58.92288094 0 1 0-121.01472375 0Z" fill="#BFCBD9" p-id="2059"></path><path d="M1111.82368906 967.73496313a44.56352344 44.56352344 0 0 1-27.23326406-9.30882469L944.75999094 850.38435125a44.58332906 44.58332906 0 1 1 54.56555906-70.50939656l67.93461562 52.58495718V808.39560969a44.56352344 44.56352344 0 0 1 33.86827782-43.17710344 186.77067844 186.77067844 0 0 0 27.827445-353.43825563 44.56352344 44.56352344 0 0 1 34.95760875-81.99688406 275.79869531 275.79869531 0 0 1-7.52628469 511.29216v82.59106406a44.56352344 44.56352344 0 0 1-44.56352344 44.0683725z" fill="#BFCBD9" p-id="2060"></path><path d="M345.033995 991.99732625a44.56352344 44.56352344 0 0 1-44.56352344-44.56352344V805.42470781a397.50663 397.50663 0 0 1 128.7390675-773.42470781h261.04321782a397.556145 397.556145 0 1 1 0 795.11228906H573.49632594L372.26725906 983.08462156a44.56352344 44.56352344 0 0 1-27.23326406 8.91270469z m84.472635-870.47415937a308.37958219 308.37958219 0 0 0-73.77738937 607.84646062 44.56352344 44.56352344 0 0 1 33.86827781 43.27613344v84.47263406l141.414915-108.93305719a44.56352344 44.56352344 0 0 1 27.23326406-9.30882469h132.40317938a308.42909719 308.42909719 0 1 0-1e-8-616.85819531H429.50663z" fill="#BFCBD9" p-id="2061"></path></svg>